<?xml version="1.0" encoding="utf-8"?>
<!-- Generator: Adobe Illustrator 24.1.1, SVG Export Plug-In . SVG Version: 6.00 Build 0)  -->
<svg version="1.1" id="Layer_1" xmlns="http://www.w3.org/2000/svg" xmlns:xlink="http://www.w3.org/1999/xlink" x="0px" y="0px"
	 viewBox="0 0 106.2 106.03" style="enable-background:new 0 0 106.2 106.03;" xml:space="preserve">
<style type="text/css">
	.st0{fill:none;stroke:#A8A843;stroke-width:3;stroke-miterlimit:10;}
	.st1{fill:#617C39;stroke:#617C39;stroke-width:0.75;stroke-miterlimit:10;}
</style>
<circle class="st0" cx="53.1" cy="53.01" r="39.25"/>
<g>
	<path class="st1" d="M64.95,73.37c-0.53,0-1.07-0.13-1.57-0.39l-9.97-5.24c-0.2-0.1-0.43-0.1-0.63,0l-9.97,5.24
		c-1.14,0.6-2.5,0.5-3.54-0.26c-1.04-0.76-1.55-2.02-1.34-3.29l1.9-11.1c0.04-0.22-0.03-0.44-0.19-0.59l-8.07-7.86
		c-0.92-0.9-1.25-2.22-0.85-3.44c0.4-1.23,1.44-2.1,2.71-2.29l11.15-1.62c0.22-0.03,0.41-0.17,0.51-0.37l4.99-10.1
		c0.57-1.16,1.72-1.87,3.01-1.87s2.44,0.72,3.01,1.87l4.99,10.1c0.1,0.2,0.29,0.34,0.51,0.37l11.15,1.62
		c1.27,0.19,2.31,1.06,2.71,2.29c0.4,1.23,0.07,2.54-0.85,3.44l-8.07,7.86c-0.16,0.15-0.23,0.38-0.19,0.59l1.9,11.1
		c0.22,1.27-0.29,2.53-1.34,3.29C66.33,73.15,65.64,73.37,64.95,73.37z M53.1,64.97c0.54,0,1.07,0.13,1.56,0.39l9.97,5.24
		c0.33,0.18,0.61,0.02,0.71-0.05c0.1-0.07,0.33-0.29,0.27-0.66l-1.9-11.1c-0.19-1.09,0.17-2.2,0.97-2.97l8.07-7.86
		c0.27-0.26,0.21-0.57,0.17-0.69c-0.04-0.12-0.17-0.4-0.54-0.46l-11.15-1.62c-1.09-0.16-2.04-0.85-2.53-1.84l-4.99-10.1v0
		c-0.17-0.34-0.48-0.37-0.6-0.37c-0.13,0-0.44,0.04-0.6,0.37l-4.99,10.1c-0.49,0.99-1.44,1.68-2.53,1.84l-11.15,1.62
		c-0.37,0.05-0.5,0.34-0.54,0.46c-0.04,0.12-0.1,0.43,0.17,0.69l8.07,7.86c0.79,0.77,1.15,1.88,0.97,2.97l-1.9,11.1
		c-0.06,0.37,0.17,0.58,0.27,0.66s0.37,0.23,0.71,0.05l9.97-5.24C52.03,65.1,52.56,64.97,53.1,64.97z"/>
	<path class="st1" d="M66.58,36.45c-0.27,0-0.55-0.08-0.79-0.26c-0.6-0.44-0.73-1.28-0.3-1.88l1.43-1.96
		c0.44-0.6,1.28-0.73,1.88-0.3c0.6,0.44,0.73,1.28,0.3,1.88l-1.43,1.96C67.41,36.26,67,36.45,66.58,36.45z"/>
	<path class="st1" d="M39.61,36.45c-0.42,0-0.83-0.19-1.09-0.55l-1.43-1.96c-0.44-0.6-0.3-1.44,0.3-1.88c0.6-0.44,1.44-0.3,1.88,0.3
		l1.43,1.96c0.44,0.6,0.3,1.44-0.3,1.88C40.16,36.36,39.89,36.45,39.61,36.45z"/>
	<path class="st1" d="M28.97,62.85c-0.57,0-1.09-0.36-1.28-0.93c-0.23-0.71,0.16-1.46,0.86-1.69l2.31-0.75
		c0.71-0.23,1.46,0.16,1.69,0.86c0.23,0.71-0.16,1.46-0.86,1.69l-2.31,0.75C29.25,62.83,29.11,62.85,28.97,62.85z"/>
	<path class="st1" d="M53.1,80.37c-0.74,0-1.34-0.6-1.34-1.34V76.6c0-0.74,0.6-1.34,1.34-1.34s1.34,0.6,1.34,1.34v2.43
		C54.44,79.77,53.84,80.37,53.1,80.37z"/>
	<path class="st1" d="M77.23,62.85c-0.14,0-0.28-0.02-0.42-0.07l-2.31-0.75c-0.71-0.23-1.09-0.99-0.86-1.69
		c0.23-0.71,0.99-1.09,1.69-0.86l2.31,0.75c0.71,0.23,1.09,0.99,0.86,1.69C78.32,62.49,77.8,62.85,77.23,62.85z"/>
</g>
</svg>
