<?xml version="1.0" encoding="utf-8"?>
<!-- Generator: Adobe Illustrator 24.0.2, SVG Export Plug-In . SVG Version: 6.00 Build 0)  -->
<svg version="1.1" id="Layer_1" xmlns="http://www.w3.org/2000/svg" xmlns:xlink="http://www.w3.org/1999/xlink" x="0px" y="0px"
	 viewBox="0 0 103.43 111.37" style="enable-background:new 0 0 103.43 111.37;" xml:space="preserve">
<style type="text/css">
	.st0{fill:none;stroke:#A8A843;stroke-width:3;stroke-miterlimit:10;}
	.st1{fill:#617C39;stroke:#617C39;stroke-width:0.75;stroke-miterlimit:10;}
</style>
<circle class="st0" cx="52.26" cy="60.13" r="39.25"/>
<g>
	<path class="st1" d="M78.03,57.24l-1.55-6.21c0.42-0.09,0.74-0.47,0.74-0.92v-1c0-2.17-1.77-3.94-3.94-3.94h-7.07v-2.06
		c0-1.07-0.87-1.94-1.94-1.94H28.24c-1.07,0-1.94,0.87-1.94,1.94v17.01c0,0.52,0.42,0.94,0.94,0.94s0.94-0.42,0.94-0.94V43.11
		c0-0.03,0.03-0.06,0.06-0.06h36.03c0.03,0,0.06,0.03,0.06,0.06v17.01c0,0.52,0.42,0.94,0.94,0.94s0.94-0.42,0.94-0.94v-1.06h11.07
		c0,0,0,0,0,0c0,0,0,0,0,0c1.36,0,2.52,0.89,2.92,2.13h-2.92c-0.52,0-0.94,0.42-0.94,0.94v2c0,1.62,1.32,2.94,2.94,2.94h1.06v4.13
		h-2.45c-0.81-2.33-3.02-4-5.62-4s-4.81,1.68-5.62,4h-0.45v-7.07c0-0.52-0.42-0.94-0.94-0.94s-0.94,0.42-0.94,0.94v7.07H44.87
		c-0.81-2.33-3.02-4-5.62-4c-2.6,0-4.81,1.68-5.62,4h-5.39c-0.03,0-0.06-0.03-0.06-0.06v-2.06h4.07c0.52,0,0.94-0.42,0.94-0.94
		s-0.42-0.94-0.94-0.94h-9.01c-0.52,0-0.94,0.42-0.94,0.94s0.42,0.94,0.94,0.94h3.06v2.06c0,1.07,0.87,1.94,1.94,1.94h5.07
		c0,0.02,0,0.04,0,0.06c0,3.28,2.67,5.94,5.94,5.94c3.28,0,5.94-2.67,5.94-5.94c0-0.02,0-0.04,0-0.06h21.14c0,0.02,0,0.04,0,0.06
		c0,3.28,2.67,5.94,5.94,5.94s5.94-2.67,5.94-5.94c0-0.02,0-0.04,0-0.06h3.07c0.52,0,0.94-0.42,0.94-0.94V62.13
		C82.22,59.66,80.4,57.6,78.03,57.24z M66.21,51.06h8.34l1.53,6.13h-9.87V51.06z M73.28,47.05c1.14,0,2.06,0.93,2.06,2.06v0.06
		h-9.13v-2.13H73.28z M39.25,77.2c-2.24,0-4.07-1.82-4.07-4.07s1.82-4.07,4.07-4.07c2.24,0,4.07,1.82,4.07,4.07
		S41.49,77.2,39.25,77.2z M72.28,77.2c-2.24,0-4.07-1.82-4.07-4.07s1.82-4.07,4.07-4.07c2.24,0,4.07,1.82,4.07,4.07
		S74.52,77.2,72.28,77.2z M79.28,65.19c-0.59,0-1.06-0.48-1.06-1.06v-1.06h2.13v2.13H79.28z"/>
	<path class="st1" d="M39.25,71.2c-1.07,0-1.94,0.87-1.94,1.94c0,1.07,0.87,1.94,1.94,1.94c1.07,0,1.94-0.87,1.94-1.94
		C41.19,72.07,40.32,71.2,39.25,71.2z"/>
	<path class="st1" d="M72.28,71.2c-1.07,0-1.94,0.87-1.94,1.94c0,1.07,0.87,1.94,1.94,1.94c1.07,0,1.94-0.87,1.94-1.94
		C74.22,72.07,73.35,71.2,72.28,71.2z"/>
	<path class="st1" d="M46.32,68.13c0,0.52,0.42,0.94,0.94,0.94h14.01c0.52,0,0.94-0.42,0.94-0.94s-0.42-0.94-0.94-0.94H47.26
		C46.74,67.19,46.32,67.61,46.32,68.13z"/>
	<path class="st1" d="M25.24,65.07h12.01c0.52,0,0.94-0.42,0.94-0.94s-0.42-0.94-0.94-0.94H25.24c-0.52,0-0.94,0.42-0.94,0.94
		S24.72,65.07,25.24,65.07z"/>
	<path class="st1" d="M53.6,50.46l-8.34,8.34l-4.34-4.34c-0.37-0.37-0.96-0.37-1.33,0c-0.37,0.37-0.37,0.96,0,1.33l5,5
		c0.18,0.18,0.42,0.27,0.66,0.27s0.48-0.09,0.66-0.27l9.01-9.01c0.37-0.37,0.37-0.96,0-1.33C54.56,50.09,53.97,50.09,53.6,50.46z"/>
</g>
</svg>
