<?xml version="1.0" encoding="utf-8"?>
<!-- Generator: Adobe Illustrator 24.0.2, SVG Export Plug-In . SVG Version: 6.00 Build 0)  -->
<svg version="1.1" id="Capa_1" xmlns="http://www.w3.org/2000/svg" xmlns:xlink="http://www.w3.org/1999/xlink" x="0px" y="0px"
	 viewBox="0 0 283.46 283.46" style="enable-background:new 0 0 283.46 283.46;" xml:space="preserve">
<style type="text/css">
	.st0{fill:#A8A843;}
	.st1{fill:#617C39;}
	.st2{fill-rule:evenodd;clip-rule:evenodd;fill:#617C39;}
</style>
<path class="st0" d="M77.19,84.29l2.6,37.86h2.28l-2.6-38.12l-0.04-0.3c-0.13-0.66-0.94-5.42,1.45-9.1c1.48-2.28,3.94-3.77,7.3-4.42
	l44.51-10.64l0.14-0.04c0.43-0.13,4.44-1.3,9.72-1.3c3.28,0,6.43,0.44,9.35,1.31l42.6,10.17l0.15,0.03
	c0.7,0.11,10.07,1.8,10.11,10.87v0.04l0,0.04l-2.18,41.48h2.3l2.17-41.39l0-0.11c0-8.9-7.84-12.51-11.99-13.18l-0.09-0.02
	l-42.4-10.12l-0.03-0.01c-3.12-0.93-6.48-1.4-9.97-1.4c-5.54,0-9.61,1.17-10.38,1.4l-0.07,0.02L87.72,67.95
	c-3.98,0.78-6.93,2.6-8.76,5.41c-2.85,4.38-1.99,9.74-1.79,10.77L77.19,84.29z"/>
<g>
	<path class="st0" d="M94.63,187.33h-1.57v1.32c0,0.36,0.26,0.54,0.79,0.54c0.69,0,1.26,0.18,1.72,0.55
		c0.49,0.39,0.73,0.9,0.73,1.54v1.73c0,0.31-0.12,0.59-0.37,0.81c-0.24,0.22-0.53,0.33-0.86,0.33h-2.44c-0.33,0-0.62-0.11-0.86-0.33
		c-0.24-0.22-0.37-0.49-0.37-0.81v-1.69h1.66v1.28h1.57v-1.32c0-0.36-0.26-0.54-0.79-0.54c-0.69,0-1.26-0.18-1.71-0.55
		c-0.49-0.39-0.73-0.9-0.73-1.54v-1.73c0-0.31,0.12-0.58,0.37-0.81c0.24-0.22,0.53-0.33,0.86-0.33h2.44c0.33,0,0.62,0.11,0.86,0.33
		c0.24,0.23,0.37,0.5,0.37,0.81v1.68h-1.66V187.33z"/>
	<path class="st0" d="M99.8,192.6h2.77v1.55h-4.43v-8.36h4.43v1.55H99.8v1.86h2.3v1.55h-2.3V192.6z"/>
	<path class="st0" d="M107.45,185.78h1.69l-1.62,8.36h-2.21l-1.62-8.36h1.68c0.3,1.54,0.65,3.79,1.04,6.77
		C106.81,189.57,107.16,187.32,107.45,185.78z"/>
	<path class="st0" d="M112.2,192.6h2.77v1.55h-4.43v-8.36h4.43v1.55h-2.77v1.86h2.3v1.55h-2.3V192.6z"/>
	<path class="st0" d="M118.24,188.76v5.39h-1.66v-8.36h2.3l1.36,5.41v-5.41h1.66v8.36h-2.3L118.24,188.76z"/>
	<path class="st0" d="M127.25,185.78h3.67c0.33,0,0.62,0.11,0.86,0.33c0.24,0.23,0.36,0.5,0.36,0.81v5.13
		c0,0.64-0.24,1.15-0.73,1.54c-0.46,0.37-1.03,0.55-1.72,0.55h-2.45V185.78z M128.91,187.33v5.27h0.79c0.52,0,0.79-0.18,0.79-0.54
		v-4.72H128.91z"/>
	<path class="st0" d="M135.68,192.45l-0.34,1.7h-1.68l1.62-8.36h2.21l1.62,8.36h-1.69l-0.33-1.7H135.68z M135.98,190.9h0.81
		l-0.41-3.56L135.98,190.9z"/>
	<path class="st0" d="M142.74,191.29v2.86h-1.66v-2.86l-1.74-5.51h1.69c0.24,0.81,0.54,2.15,0.88,4c0.35-1.86,0.64-3.19,0.88-4h1.7
		L142.74,191.29z"/>
	<path class="st0" d="M148.79,187.33h-1.57v1.32c0,0.36,0.26,0.54,0.78,0.54c0.69,0,1.26,0.18,1.72,0.55
		c0.49,0.39,0.73,0.9,0.73,1.54v1.73c0,0.31-0.12,0.59-0.37,0.81c-0.24,0.22-0.53,0.33-0.86,0.33h-2.44c-0.33,0-0.62-0.11-0.86-0.33
		c-0.24-0.22-0.37-0.49-0.37-0.81v-1.69h1.66v1.28h1.57v-1.32c0-0.36-0.26-0.54-0.79-0.54c-0.68,0-1.26-0.18-1.71-0.55
		c-0.49-0.39-0.73-0.9-0.73-1.54v-1.73c0-0.31,0.12-0.58,0.37-0.81c0.24-0.22,0.53-0.33,0.86-0.33h2.44c0.33,0,0.62,0.11,0.86,0.33
		c0.24,0.23,0.37,0.5,0.37,0.81v1.68h-1.66V187.33z"/>
	<path class="st0" d="M157.11,192.45l-0.33,1.7h-1.68l1.62-8.36h2.21l1.62,8.36h-1.69l-0.33-1.7H157.11z M157.41,190.9h0.81
		l-0.41-3.56L157.41,190.9z"/>
	<path class="st0" d="M168.4,185.78h2.11l1.01,6.8c0.33-3.01,0.63-5.27,0.89-6.8h1.68l-1.43,8.36h-2.22l-0.99-6.02l-0.99,6.02h-2.22
		l-1.43-8.36h1.68c0.26,1.53,0.56,3.79,0.89,6.8L168.4,185.78z"/>
	<path class="st0" d="M177.2,192.6h2.77v1.55h-4.43v-8.36h4.43v1.55h-2.77v1.86h2.3v1.55h-2.3V192.6z"/>
	<path class="st0" d="M183.24,192.6h2.77v1.55h-4.43v-8.36h4.43v1.55h-2.77v1.86h2.3v1.55h-2.3V192.6z"/>
	<path class="st0" d="M187.62,185.78h3.67c0.33,0,0.62,0.11,0.86,0.33c0.24,0.23,0.36,0.5,0.36,0.81v5.13
		c0,0.64-0.24,1.15-0.73,1.54c-0.46,0.37-1.03,0.55-1.72,0.55h-2.45V185.78z M189.28,187.33v5.27h0.79c0.52,0,0.79-0.18,0.79-0.54
		v-4.72H189.28z"/>
</g>
<g>
	<path class="st0" d="M142.6,86.4c0,0,1.26,10.26,0.82,19.24c7.8-11.2,9.01-29.45-0.52-42.93c-10.7,15.19-7.88,31.55-0.86,43.09
		C141.92,101.81,141.81,93.88,142.6,86.4z"/>
	<path class="st0" d="M145.61,106.24c2.72-3.19,6.43-7.3,10.32-10.93c0,0-4.3,6.4-9.48,12.33c13.45-4.74,19.54-14.81,19.13-27.41
		C154.94,86.5,148.63,95.15,145.61,106.24z"/>
	<path class="st0" d="M129.57,95.6c3.95,3.69,7.69,7.85,10.43,11.06c-2.97-11.29-9.3-20.08-20.08-26.43
		c-0.41,12.48,5.57,22.48,18.76,27.28C133.66,101.7,129.57,95.6,129.57,95.6z"/>
	<path class="st0" d="M129.69,108.8c3.71-0.1,7.63,0.4,9.35,0.66c-4.72-3.37-11.05-4.98-20.88-3.32c4.52,3.44,9.22,5.4,14.49,5.23
		c1.53-0.02,4.23-0.22,6.34-1.18C134.72,110.08,129.69,108.8,129.69,108.8z"/>
	<path class="st0" d="M135.05,114.56c1.78-0.94,3.7-1.75,5.34-2.38c-6.18-0.86-9.54,2.52-11.43,4.82c7.14,0.35,9.64-1.69,11.59-3.97
		C137.65,114,135.05,114.56,135.05,114.56z"/>
	<path class="st0" d="M145.28,112.15c1.63,0.69,3.53,1.56,5.29,2.57c0,0-2.75-0.68-5.73-1.81c1.96,2.32,4.42,4.44,11.7,4.09
		C154.66,114.72,151.34,111.38,145.28,112.15z"/>
	<path class="st0" d="M146.7,109.28c2.01-0.25,5.09-0.56,8.04-0.48c0,0-4.3,1.09-8.34,1.35c2.13,0.99,4.88,1.2,6.44,1.22
		c5.27,0.17,9.97-1.79,14.49-5.23C157.67,104.51,151.39,106.04,146.7,109.28z"/>
</g>
<path class="st0" d="M201.23,175.57h-2.29l-1.72,23.7l0,0.05c0.01,0.43,0.11,10.45-8.31,12.88l-12.43,3.26v0l-21.65,5.66
	c-7.97,2.14-11.22,2.49-11.58,2.52c-3.16-0.02-11.9-2-11.97-2.01l-21.09-5.12l-13.5-3.33l-0.1-0.02
	c-0.08-0.02-10.21-2.21-10.16-16.7l-1.68-20.87h-2.29l1.68,20.9c-0.04,15.55,10.75,18.61,11.98,18.91l3.23,0.78l-0.03,0.01
	l6.58,1.62l0,0.01l24.85,6.06c0.37,0.08,9.17,2.08,12.55,2.08h0.04l0.04,0c0.13-0.01,3.33-0.25,12.04-2.59l21.06-5.53v0l2.14-0.56
	l1.15-0.3l0,0l9.75-2.56c8.07-2.32,10.07-10.85,9.99-15.04l0-0.05l0-0.05L201.23,175.57z"/>
<path class="st1" d="M170.55,168.64l-3.82-8.88H149.5l-3.82,8.88h-9.76l17.76-41.11h8.88l17.76,41.11H170.55z M158.14,139.77
	l-5.18,11.94h10.29L158.14,139.77z"/>
<path class="st1" d="M188.47,153.01l8.01-25.48h9.58l7.67,25.75l7.74-25.75h9.94l-14.35,41.11h-6.82l-9-28.58l-8.94,28.58h-6.82
	l-17.62-41.11h9.94L188.47,153.01z"/>
<path class="st1" d="M133.52,132.91c-3.92-3.59-9.55-5.38-16.88-5.38h-3.65v8h3.41c4.66,0,8.13,1.09,10.38,3.26
	c2.25,2.18,3.38,5.28,3.38,9.32c0,4.04-1.13,7.12-3.38,9.23c-2.26,2.12-5.48,3.18-9.67,3.18h-5.82v-20.74l-9.17,19.77v9.09h14.06
	c7.84,0,13.67-1.86,17.5-5.59c3.82-3.72,5.73-8.78,5.73-15.17C139.4,141.49,137.44,136.5,133.52,132.91z"/>
<path class="st1" d="M82.33,149.11c-2.16-1.92-5.19-3.36-9.09-4.32c-3.9-0.96-6.39-1.79-7.47-2.5c-1.08-0.71-1.62-1.66-1.62-2.85
	c0-1.2,0.44-2.16,1.32-2.88c0.83-0.68,1.96-1.04,3.38-1.07l14.02,0v-8.05l-14.3,0.01c-3.83,0.13-7.07,1.17-9.69,3.14
	c-2.8,2.12-4.21,5.13-4.21,9.03c0,3.9,1.11,6.76,3.32,8.59c2.21,1.82,5.71,3.3,10.5,4.44c3.02,0.75,5.04,1.48,6.06,2.21
	c1.02,0.73,1.53,1.71,1.53,2.94c0,1.24-0.48,2.22-1.44,2.94c-0.96,0.73-2.28,1.09-3.97,1.09c-3.76,0-7.86-1.94-12.29-5.82
	l-5.47,6.71c5.21,4.82,11.08,7.23,17.58,7.23c4.51,0,8.15-1.15,10.91-3.44c2.76-2.29,4.15-5.28,4.15-8.97
	C85.56,153.83,84.48,151.03,82.33,149.11z"/>
<polygon class="st0" points="85.32,127.43 85.32,135.48 100.2,135.47 84.77,169.46 93.37,169.46 109.57,134.51 109.57,127.41 "/>
<g>
	<path class="st2" d="M231.2,123.15c-4.92-0.39-9.9-0.73-14.9-1.02l2.3-42.97c0.86-14.63-12.5-20.63-19.78-21.79l-44.38-10.61
		c-4.45-1.04-8.99-1.56-13.49-1.56c-7.25,0-12.06,1.37-12.79,1.59L82.34,57.88c-16.21,3.77-18.08,19.38-16.79,27.21l2.55,37.24
		c-11.52,0.55-14.6,0.82-14.6,0.82H231.2z M70.24,84.66l-0.03-0.24c-0.13-0.74-2.9-18.21,13.21-21.96l45.91-11.11l0.15-0.04
		c0.04-0.01,4.53-1.39,11.46-1.39c4.14,0,8.32,0.48,12.41,1.44l44.46,10.63l0.19,0.04c0.68,0.11,16.71,2.73,15.88,16.85l-2.31,42.99
		c-53.9-2.92-110.08-1.1-138.74,0.24L70.24,84.66z"/>
	<path class="st2" d="M71.19,176l2.18,27.96l0.01,0.13c2.12,17.44,19.01,21.51,20.66,21.87l15.36,4.19l20.55,5.77
		c0.96,0.29,9.49,2.89,13.03,2.89h0.08l0.07,0c0.26-0.02,2.79-0.23,11.54-2.58l17.65-5.29l22.82-6.65
		c12.93-3.6,15.95-16.26,15.75-22.57l1.89-25.87c11.59-0.51,18.43-0.94,18.43-0.94H53.49C59.33,175.33,65.24,175.69,71.19,176z
		 M208.02,176.04l-1.86,25.48l-0.01,0.12l0,0.11c0.02,0.59,0.35,14.45-12.29,17.97l-13.88,4.06v0l-0.07,0.02l-7.59,2.22
		c0,0.01,0,0.02,0,0.02l-18.95,5.59c-7.53,2.02-10.09,2.36-10.49,2.41c-2.21-0.05-8.22-1.66-11.58-2.69l-20.56-5.73v0l-0.64-0.17
		l-0.02-0.01h0l-14.87-4.06l-0.19-0.04c-0.15-0.03-15.12-2.97-16.95-17.76l-2.13-27.34C126.66,178.66,178.92,177.24,208.02,176.04z"
		/>
</g>
</svg>
