<?xml version="1.0" encoding="utf-8"?>
<!-- Generator: Adobe Illustrator 24.0.2, SVG Export Plug-In . SVG Version: 6.00 Build 0)  -->
<svg version="1.1" id="Capa_1" xmlns="http://www.w3.org/2000/svg" xmlns:xlink="http://www.w3.org/1999/xlink" x="0px" y="0px"
	 viewBox="0 0 228.43 94.72" style="enable-background:new 0 0 228.43 94.72;" xml:space="preserve">
<style type="text/css">
	.st0{fill:#9DA024;}
	.st1{fill:#4C630F;}
</style>
<path class="st0" d="M150.19,65.55l-4.68-10.87h-21.1l-4.68,10.87h-11.95l21.74-50.33h10.87l21.74,50.33H150.19z M135,30.2
	l-6.34,14.62h12.6L135,30.2z"/>
<path class="st0" d="M172.13,46.42l9.8-31.2h11.74l9.38,31.52l9.48-31.52h12.17l-17.57,50.33h-8.35l-11.02-34.99l-10.94,34.99h-8.35
	L146.9,15.22h12.17L172.13,46.42z"/>
<path class="st0" d="M104.85,21.81c-4.8-4.39-11.69-6.59-20.66-6.59h-4.47v9.79h4.18c5.71,0,9.95,1.33,12.71,4
	c2.76,2.66,4.14,6.47,4.14,11.41s-1.38,8.71-4.14,11.3c-2.76,2.59-6.71,3.89-11.84,3.89h-7.13V30.22L66.4,54.42v11.13h17.21
	c9.6,0,16.74-2.28,21.42-6.84c4.68-4.56,7.02-10.75,7.02-18.58C112.05,32.31,109.65,26.2,104.85,21.81z"/>
<path class="st0" d="M42.18,41.64c-2.64-2.35-6.35-4.11-11.12-5.29c-4.78-1.17-7.82-2.2-9.14-3.06c-1.32-0.86-1.98-2.03-1.98-3.49
	c0-1.46,0.54-2.64,1.62-3.53c1.02-0.84,2.41-1.27,4.13-1.31l17.16,0V15.1l-17.5,0.01c-4.69,0.16-8.65,1.43-11.86,3.85
	c-3.43,2.59-5.15,6.28-5.15,11.05c0,4.78,1.36,8.28,4.07,10.51c2.71,2.23,7,4.04,12.85,5.44c3.7,0.91,6.17,1.81,7.42,2.7
	c1.25,0.89,1.87,2.09,1.87,3.6c0,1.51-0.59,2.71-1.76,3.6c-1.18,0.89-2.8,1.33-4.86,1.33c-4.61,0-9.62-2.38-15.05-7.13l-6.7,8.21
	c6.38,5.9,13.56,8.86,21.53,8.86c5.52,0,9.97-1.41,13.36-4.21s5.08-6.47,5.08-10.98S44.82,43.99,42.18,41.64z"/>
<polygon class="st1" points="45.85,15.1 45.85,24.95 64.06,24.95 45.18,66.55 55.7,66.55 75.54,23.77 75.54,15.08 "/>
<g>
	<path class="st1" d="M6.28,77.77l1.21-1.45c0.77,0.62,1.64,0.94,2.55,0.94c0.58,0,0.9-0.2,0.9-0.54v-0.02
		c0-0.33-0.26-0.5-1.32-0.75c-1.67-0.38-2.96-0.85-2.96-2.47v-0.02c0-1.46,1.16-2.51,3.04-2.51c1.33,0,2.38,0.36,3.23,1.04
		l-1.09,1.54c-0.72-0.5-1.5-0.77-2.2-0.77c-0.53,0-0.79,0.22-0.79,0.5v0.02c0,0.36,0.27,0.52,1.36,0.76
		c1.81,0.39,2.93,0.98,2.93,2.44v0.02c0,1.6-1.27,2.56-3.17,2.56C8.57,79.07,7.25,78.64,6.28,77.77z"/>
	<path class="st1" d="M19.8,71.09h6.31v1.85h-4.16v1.19h3.77v1.72h-3.77v1.25h4.22v1.85H19.8V71.09z"/>
	<path class="st1" d="M32.26,71.09h2.43l1.78,4.97l1.78-4.97h2.39l-3.19,7.91h-2.02L32.26,71.09z"/>
	<path class="st1" d="M47.01,71.09h6.31v1.85h-4.16v1.19h3.77v1.72h-3.77v1.25h4.22v1.85h-6.37V71.09z"/>
	<path class="st1" d="M60.1,71.09h2.03l3.23,4.15v-4.15h2.15v7.85h-1.91l-3.35-4.31v4.31H60.1V71.09z"/>
	<path class="st1" d="M83.22,71.09h3.03c2.8,0,4.43,1.62,4.43,3.88v0.02c0,2.27-1.65,3.95-4.47,3.95h-2.98V71.09z M86.28,77.01
		c1.3,0,2.17-0.72,2.17-1.99V75c0-1.26-0.86-1.99-2.17-1.99H85.4v3.99H86.28z"/>
	<path class="st1" d="M99.56,71.03h2.1l3.34,7.91h-2.33l-0.57-1.4h-3.03l-0.56,1.4h-2.29L99.56,71.03z M101.47,75.84l-0.88-2.23
		l-0.89,2.23H101.47z"/>
	<path class="st1" d="M112.4,76l-2.98-4.91h2.48l1.62,2.86l1.63-2.86h2.43l-2.98,4.88v2.97h-2.19V76z"/>
	<path class="st1" d="M122.86,77.77l1.21-1.45c0.77,0.62,1.64,0.94,2.55,0.94c0.58,0,0.9-0.2,0.9-0.54v-0.02
		c0-0.33-0.26-0.5-1.32-0.75c-1.67-0.38-2.96-0.85-2.96-2.47v-0.02c0-1.46,1.16-2.51,3.04-2.51c1.33,0,2.38,0.36,3.23,1.04
		l-1.09,1.54c-0.72-0.5-1.5-0.77-2.2-0.77c-0.53,0-0.79,0.22-0.79,0.5v0.02c0,0.36,0.27,0.52,1.36,0.76
		c1.81,0.39,2.93,0.98,2.93,2.44v0.02c0,1.6-1.27,2.56-3.17,2.56C125.15,79.07,123.83,78.64,122.86,77.77z"/>
	<path class="st1" d="M147.81,71.03h2.1l3.34,7.91h-2.33l-0.57-1.4h-3.03l-0.56,1.4h-2.29L147.81,71.03z M149.71,75.84l-0.88-2.23
		l-0.89,2.23H149.71z"/>
	<path class="st1" d="M167.8,71.09h2.3l1.37,4.54l1.51-4.56h1.87l1.51,4.56l1.37-4.54h2.25l-2.62,7.91h-1.9l-1.58-4.52l-1.57,4.52
		h-1.9L167.8,71.09z"/>
	<path class="st1" d="M186.46,71.09h6.31v1.85h-4.16v1.19h3.77v1.72h-3.77v1.25h4.22v1.85h-6.37V71.09z"/>
	<path class="st1" d="M199.55,71.09h6.31v1.85h-4.16v1.19h3.77v1.72h-3.77v1.25h4.22v1.85h-6.37V71.09z"/>
	<path class="st1" d="M212.63,71.09h3.03c2.8,0,4.43,1.62,4.43,3.88v0.02c0,2.27-1.65,3.95-4.47,3.95h-2.98V71.09z M215.69,77.01
		c1.3,0,2.16-0.72,2.16-1.99V75c0-1.26-0.86-1.99-2.16-1.99h-0.89v3.99H215.69z"/>
</g>
</svg>
